<?xml version="1.0" encoding="UTF-8"?>
<!DOCTYPE svg PUBLIC "-//W3C//DTD SVG 1.1//EN" "http://www.w3.org/Graphics/SVG/1.1/DTD/svg11.dtd">
<svg xmlns="http://www.w3.org/2000/svg" version="1.1" width="678px" height="77px" style="shape-rendering:geometricPrecision; text-rendering:geometricPrecision; image-rendering:optimizeQuality; fill-rule:evenodd; clip-rule:evenodd" xmlns:xlink="http://www.w3.org/1999/xlink">
<g><path style="opacity:1" fill="#1e1f26" d="M -0.5,-0.5 C 225.5,-0.5 451.5,-0.5 677.5,-0.5C 677.5,25.1667 677.5,50.8333 677.5,76.5C 451.5,76.5 225.5,76.5 -0.5,76.5C -0.5,50.8333 -0.5,25.1667 -0.5,-0.5 Z"/></g>
<g><path style="opacity:1" fill="#6a6a6a" d="M 135.5,72.5 C 128.352,73.4916 121.019,73.825 113.5,73.5C 108.022,65.9004 102.522,58.2337 97,50.5C 92.3035,57.3483 87.4701,64.015 82.5,70.5C 82.5,69.1667 82.5,67.8333 82.5,66.5C 86.8303,59.1797 91.6636,52.1797 97,45.5C 103.325,53.4824 109.159,61.8158 114.5,70.5C 119.68,71.8147 125.014,71.8147 130.5,70.5C 130.376,69.8933 130.043,69.56 129.5,69.5C 122.517,58.8445 115.517,48.1779 108.5,37.5C 114.914,27.007 121.58,16.6736 128.5,6.5C 129.043,6.44001 129.376,6.10667 129.5,5.5C 124.348,4.18635 119.348,4.18635 114.5,5.5C 109.086,13.3151 103.42,20.9818 97.5,28.5C 91.5802,20.9818 85.9135,13.3151 80.5,5.5C 75.3197,4.18526 69.9864,4.18526 64.5,5.5C 64.6236,6.10667 64.9569,6.44001 65.5,6.5C 72.7245,16.5946 79.7245,26.9279 86.5,37.5C 78.7508,47.9097 71.4174,58.5764 64.5,69.5C 63.6618,69.8417 63.3284,70.5084 63.5,71.5C 62.5326,70.1938 61.1993,69.5271 59.5,69.5C 59.5,65.8333 59.5,62.1667 59.5,58.5C 47.3217,58.8284 35.3217,58.4951 23.5,57.5C 35.8333,57.5 48.1667,57.5 60.5,57.5C 60.335,60.8499 60.5017,64.1832 61,67.5C 68.8409,57.8138 75.6743,47.4805 81.5,36.5C 75.2351,26.2345 68.5684,16.2345 61.5,6.5C 61.1667,5.5 60.5,4.83333 59.5,4.5C 40.674,3.50304 21.674,3.16971 2.5,3.5C 2.5,26.8333 2.5,50.1667 2.5,73.5C 1.50242,50.0059 1.16909,26.3392 1.5,2.5C 28.8415,2.16686 56.1748,2.5002 83.5,3.5C 88.1667,10.1667 92.8333,16.8333 97.5,23.5C 102.622,16.7554 107.622,9.92207 112.5,3C 120.167,2.33333 127.833,2.33333 135.5,3C 127.427,14.0704 119.76,25.4038 112.5,37C 120.306,48.7883 127.973,60.6216 135.5,72.5 Z"/></g>
<g><path style="opacity:1" fill="#6f6f6f" d="M 59.5,4.5 C 59.5,9.16667 59.5,13.8333 59.5,18.5C 47.5,18.5 35.5,18.5 23.5,18.5C 23.5,21.8333 23.5,25.1667 23.5,28.5C 33.6532,29.4942 43.9865,29.8276 54.5,29.5C 54.5,34.5 54.5,39.5 54.5,44.5C 44.1667,44.5 33.8333,44.5 23.5,44.5C 23.5,48.8333 23.5,53.1667 23.5,57.5C 35.3217,58.4951 47.3217,58.8284 59.5,58.5C 59.5,62.1667 59.5,65.8333 59.5,69.5C 61.1993,69.5271 62.5326,70.1938 63.5,71.5C 68.6946,71.8205 73.6946,71.4872 78.5,70.5C 79.8333,69.1667 81.1667,67.8333 82.5,66.5C 82.5,67.8333 82.5,69.1667 82.5,70.5C 82.1961,71.1499 81.8627,71.8165 81.5,72.5C 55.1751,73.4998 28.8418,73.8331 2.5,73.5C 2.5,50.1667 2.5,26.8333 2.5,3.5C 21.674,3.16971 40.674,3.50304 59.5,4.5 Z"/></g>
<g><path style="opacity:1" fill="#6d6d6d" d="M 139.5,2.5 C 153.837,2.33342 168.171,2.50009 182.5,3C 200.372,7.91108 206.205,19.0777 200,36.5C 195.992,42.4249 190.492,46.2582 183.5,48C 176.214,49.1857 168.881,49.6857 161.5,49.5C 161.5,57.5 161.5,65.5 161.5,73.5C 154.167,73.5 146.833,73.5 139.5,73.5C 139.5,49.8333 139.5,26.1667 139.5,2.5 Z"/></g>
<g><path style="opacity:1" fill="#676768" d="M 264.5,44.5 C 253.833,44.5 243.167,44.5 232.5,44.5C 232.182,49.0323 232.515,53.3656 233.5,57.5C 245.833,57.5 258.167,57.5 270.5,57.5C 270.5,62.8333 270.5,68.1667 270.5,73.5C 250.5,73.5 230.5,73.5 210.5,73.5C 210.5,49.8333 210.5,26.1667 210.5,2.5C 230.167,2.5 249.833,2.5 269.5,2.5C 269.5,7.83333 269.5,13.1667 269.5,18.5C 257.167,18.5 244.833,18.5 232.5,18.5C 232.5,21.8333 232.5,25.1667 232.5,28.5C 243.167,28.5 253.833,28.5 264.5,28.5C 264.5,33.8333 264.5,39.1667 264.5,44.5 Z"/></g>
<g><path style="opacity:1" fill="#6e6c6a" d="M 327.5,5.5 C 325.5,5.5 323.5,5.5 321.5,5.5C 320.167,5.5 318.833,5.5 317.5,5.5C 305.678,4.50492 293.678,4.17159 281.5,4.5C 281.5,26.5 281.5,48.5 281.5,70.5C 286.64,71.4881 291.974,71.8214 297.5,71.5C 297.5,62.1667 297.5,52.8333 297.5,43.5C 302.628,43.1115 307.628,43.6115 312.5,45C 315.945,47.2734 317.945,50.4401 318.5,54.5C 318.166,57.491 319.166,59.8243 321.5,61.5C 321.5,61.8333 321.5,62.1667 321.5,62.5C 321.768,64.099 321.434,65.4324 320.5,66.5C 318.121,60.8931 315.621,55.2265 313,49.5C 312.097,48.2986 310.931,47.4652 309.5,47C 306.518,46.502 303.518,46.3354 300.5,46.5C 300.5,55.5 300.5,64.5 300.5,73.5C 293.167,73.5 285.833,73.5 278.5,73.5C 278.5,49.8333 278.5,26.1667 278.5,2.5C 292.171,2.33343 305.837,2.5001 319.5,3C 322.522,3.09842 325.189,3.93175 327.5,5.5 Z"/></g>
<g><path style="opacity:1" fill="#6e6b68" d="M 351.5,2.5 C 358.833,2.5 366.167,2.5 373.5,2.5C 373.5,26.1667 373.5,49.8333 373.5,73.5C 366.167,73.5 358.833,73.5 351.5,73.5C 351.5,49.8333 351.5,26.1667 351.5,2.5 Z"/></g>
<g><path style="opacity:1" fill="#6b6a6a" d="M 387.5,2.5 C 406.833,2.5 426.167,2.5 445.5,2.5C 445.5,7.83333 445.5,13.1667 445.5,18.5C 433.167,18.5 420.833,18.5 408.5,18.5C 408.5,21.8333 408.5,25.1667 408.5,28.5C 419.167,28.5 429.833,28.5 440.5,28.5C 440.5,33.8333 440.5,39.1667 440.5,44.5C 429.833,44.5 419.167,44.5 408.5,44.5C 408.182,49.0323 408.515,53.3656 409.5,57.5C 421.833,57.5 434.167,57.5 446.5,57.5C 446.821,63.0262 446.488,68.3595 445.5,73.5C 426.167,73.5 406.833,73.5 387.5,73.5C 387.5,49.8333 387.5,26.1667 387.5,2.5 Z"/></g>
<g><path style="opacity:1" fill="#706e6b" d="M 454.5,3.5 C 461.833,3.5 469.167,3.5 476.5,3.5C 476.5,4.5 476.5,5.5 476.5,6.5C 475.833,6.5 475.5,6.16667 475.5,5.5C 469.69,4.51045 463.69,4.17711 457.5,4.5C 457.5,26.5 457.5,48.5 457.5,70.5C 462.305,71.4872 467.305,71.8205 472.5,71.5C 472.5,56.1667 472.5,40.8333 472.5,25.5C 475.086,26.6385 476.753,28.6385 477.5,31.5C 477.218,32.7777 476.551,33.7777 475.5,34.5C 475.5,47.5 475.5,60.5 475.5,73.5C 468.5,73.5 461.5,73.5 454.5,73.5C 454.5,50.1667 454.5,26.8333 454.5,3.5 Z"/></g>
<g><path style="opacity:1" fill="#6b6c6c" d="M 454.5,3.5 C 461.989,2.34434 469.655,2.17767 477.5,3C 486.212,14.9226 495.045,26.756 504,38.5C 504.5,26.5046 504.667,14.5046 504.5,2.5C 511.5,2.5 518.5,2.5 525.5,2.5C 525.5,26.1667 525.5,49.8333 525.5,73.5C 518.492,73.6663 511.492,73.4996 504.5,73C 494.97,59.9827 485.303,47.1494 475.5,34.5C 476.551,33.7777 477.218,32.7777 477.5,31.5C 487.303,44.1494 496.97,56.9827 506.5,70C 511.823,70.4994 517.156,70.666 522.5,70.5C 522.5,48.8333 522.5,27.1667 522.5,5.5C 517.695,4.51283 512.695,4.17949 507.5,4.5C 507.5,18.8333 507.5,33.1667 507.5,47.5C 496.47,34.4782 486.137,20.8115 476.5,6.5C 476.5,5.5 476.5,4.5 476.5,3.5C 469.167,3.5 461.833,3.5 454.5,3.5 Z"/></g>
<g><path style="opacity:1" fill="#6e6e6d" d="M 616.5,2.5 C 635.833,2.5 655.167,2.5 674.5,2.5C 674.5,7.83333 674.5,13.1667 674.5,18.5C 662.5,18.5 650.5,18.5 638.5,18.5C 638.5,21.8333 638.5,25.1667 638.5,28.5C 649.167,28.5 659.833,28.5 670.5,28.5C 670.5,33.8333 670.5,39.1667 670.5,44.5C 659.833,44.5 649.167,44.5 638.5,44.5C 638.5,48.8333 638.5,53.1667 638.5,57.5C 650.833,57.5 663.167,57.5 675.5,57.5C 675.5,62.8333 675.5,68.1667 675.5,73.5C 655.833,73.5 636.167,73.5 616.5,73.5C 616.5,49.8333 616.5,26.1667 616.5,2.5 Z"/></g>
<g><path style="opacity:1" fill="#464546" d="M 80.5,5.5 C 75.3054,5.17949 70.3054,5.51283 65.5,6.5C 64.9569,6.44001 64.6236,6.10667 64.5,5.5C 69.9864,4.18526 75.3197,4.18526 80.5,5.5 Z"/></g>
<g><path style="opacity:1" fill="#434446" d="M 114.5,5.5 C 119.348,4.18635 124.348,4.18635 129.5,5.5C 129.376,6.10667 129.043,6.44001 128.5,6.5C 124.03,5.51388 119.363,5.18054 114.5,5.5 Z"/></g>
<g><path style="opacity:1" fill="#1c1d24" d="M 20.5,15.5 C 20.5,20.8333 20.5,26.1667 20.5,31.5C 30.8333,31.5 41.1667,31.5 51.5,31.5C 51.5,34.8333 51.5,38.1667 51.5,41.5C 41.1667,41.5 30.8333,41.5 20.5,41.5C 20.5,47.8333 20.5,54.1667 20.5,60.5C 32.3217,61.4951 44.3217,61.8284 56.5,61.5C 56.5,64.5 56.5,67.5 56.5,70.5C 39.5,70.5 22.5,70.5 5.5,70.5C 5.5,48.8333 5.5,27.1667 5.5,5.5C 22.1667,5.5 38.8333,5.5 55.5,5.5C 55.5,8.5 55.5,11.5 55.5,14.5C 43.6547,14.1717 31.988,14.5051 20.5,15.5 Z"/></g>
<g><path style="opacity:1" fill="#1d1e25" d="M 65.5,6.5 C 70.3054,5.51283 75.3054,5.17949 80.5,5.5C 85.9135,13.3151 91.5802,20.9818 97.5,28.5C 103.42,20.9818 109.086,13.3151 114.5,5.5C 119.363,5.18054 124.03,5.51388 128.5,6.5C 121.58,16.6736 114.914,27.007 108.5,37.5C 115.517,48.1779 122.517,58.8445 129.5,69.5C 124.695,70.4872 119.695,70.8205 114.5,70.5C 109.159,61.8158 103.325,53.4824 97,45.5C 91.6636,52.1797 86.8303,59.1797 82.5,66.5C 81.1667,67.8333 79.8333,69.1667 78.5,70.5C 73.6367,70.8195 68.97,70.4861 64.5,69.5C 71.4174,58.5764 78.7508,47.9097 86.5,37.5C 79.7245,26.9279 72.7245,16.5946 65.5,6.5 Z"/></g>
<g><path style="opacity:1" fill="#453c38" d="M 177.5,5.5 C 166.167,5.5 154.833,5.5 143.5,5.5C 143.5,27.1667 143.5,48.8333 143.5,70.5C 143.167,70.5 142.833,70.5 142.5,70.5C 142.5,48.5 142.5,26.5 142.5,4.5C 154.345,4.17174 166.012,4.50507 177.5,5.5 Z"/></g>
<g><path style="opacity:1" fill="#1c1e25" d="M 177.5,5.5 C 185.397,6.03234 191.897,9.36567 197,15.5C 198.202,17.6775 198.702,20.0108 198.5,22.5C 198.677,26.2343 198.344,29.9009 197.5,33.5C 193.365,41.4156 186.699,45.5822 177.5,46C 171.175,46.4995 164.842,46.6662 158.5,46.5C 157.508,54.3159 157.174,62.3159 157.5,70.5C 152.833,70.5 148.167,70.5 143.5,70.5C 143.5,48.8333 143.5,27.1667 143.5,5.5C 154.833,5.5 166.167,5.5 177.5,5.5 Z"/></g>
<g><path style="opacity:1" fill="#1c1d24" d="M 230.5,15.5 C 229.512,20.6405 229.179,25.9738 229.5,31.5C 239.653,32.4942 249.986,32.8276 260.5,32.5C 260.5,35.5 260.5,38.5 260.5,41.5C 250.167,41.5 239.833,41.5 229.5,41.5C 229.5,47.8333 229.5,54.1667 229.5,60.5C 241.833,60.5 254.167,60.5 266.5,60.5C 266.5,63.8333 266.5,67.1667 266.5,70.5C 249.167,70.5 231.833,70.5 214.5,70.5C 214.5,48.8333 214.5,27.1667 214.5,5.5C 231.5,5.5 248.5,5.5 265.5,5.5C 265.5,8.83333 265.5,12.1667 265.5,15.5C 253.833,15.5 242.167,15.5 230.5,15.5 Z"/></g>
<g><path style="opacity:1" fill="#302a2d" d="M 317.5,5.5 C 305.833,5.5 294.167,5.5 282.5,5.5C 282.5,27.1667 282.5,48.8333 282.5,70.5C 282.167,70.5 281.833,70.5 281.5,70.5C 281.5,48.5 281.5,26.5 281.5,4.5C 293.678,4.17159 305.678,4.50492 317.5,5.5 Z"/></g>
<g><path style="opacity:1" fill="#1c1d25" d="M 317.5,5.5 C 318.833,5.5 320.167,5.5 321.5,5.5C 336.097,9.02951 340.264,17.6962 334,31.5C 330.731,34.8834 326.897,37.3834 322.5,39C 325.884,40.9317 328.718,43.4317 331,46.5C 333.643,53.9521 336.476,61.2854 339.5,68.5C 334.944,70.4417 329.944,71.1083 324.5,70.5C 324.267,67.4582 323.267,64.7916 321.5,62.5C 321.5,62.1667 321.5,61.8333 321.5,61.5C 321.065,58.8427 320.065,56.5093 318.5,54.5C 317.945,50.4401 315.945,47.2734 312.5,45C 307.628,43.6115 302.628,43.1115 297.5,43.5C 296.507,52.3178 296.173,61.3178 296.5,70.5C 291.833,70.5 287.167,70.5 282.5,70.5C 282.5,48.8333 282.5,27.1667 282.5,5.5C 294.167,5.5 305.833,5.5 317.5,5.5 Z"/></g>
<g><path style="opacity:1" fill="#1c1d24" d="M 354.5,5.5 C 359.5,5.5 364.5,5.5 369.5,5.5C 369.5,27.1667 369.5,48.8333 369.5,70.5C 364.5,70.5 359.5,70.5 354.5,70.5C 354.5,48.8333 354.5,27.1667 354.5,5.5 Z"/></g>
<g><path style="opacity:1" fill="#4b565f" d="M 354.5,5.5 C 359.64,4.51192 364.974,4.17859 370.5,4.5C 370.5,26.8333 370.5,49.1667 370.5,71.5C 364.974,71.8214 359.64,71.4881 354.5,70.5C 359.5,70.5 364.5,70.5 369.5,70.5C 369.5,48.8333 369.5,27.1667 369.5,5.5C 364.5,5.5 359.5,5.5 354.5,5.5 Z"/></g>
<g><path style="opacity:1" fill="#1d1e25" d="M 406.5,15.5 C 405.512,20.6405 405.179,25.9738 405.5,31.5C 415.653,32.4942 425.986,32.8276 436.5,32.5C 436.5,35.5 436.5,38.5 436.5,41.5C 426.167,41.5 415.833,41.5 405.5,41.5C 405.5,47.8333 405.5,54.1667 405.5,60.5C 417.833,60.5 430.167,60.5 442.5,60.5C 442.5,63.8333 442.5,67.1667 442.5,70.5C 425.167,70.5 407.833,70.5 390.5,70.5C 390.5,48.5 390.5,26.5 390.5,4.5C 407.5,4.5 424.5,4.5 441.5,4.5C 441.5,8.16667 441.5,11.8333 441.5,15.5C 429.833,15.5 418.167,15.5 406.5,15.5 Z"/></g>
<g><path style="opacity:1" fill="#2d272a" d="M 475.5,5.5 C 469.833,5.5 464.167,5.5 458.5,5.5C 458.5,27.1667 458.5,48.8333 458.5,70.5C 458.167,70.5 457.833,70.5 457.5,70.5C 457.5,48.5 457.5,26.5 457.5,4.5C 463.69,4.17711 469.69,4.51045 475.5,5.5 Z"/></g>
<g><path style="opacity:1" fill="#1c1d24" d="M 475.5,5.5 C 475.5,6.16667 475.833,6.5 476.5,6.5C 486.137,20.8115 496.47,34.4782 507.5,47.5C 508.496,33.6766 508.829,19.6766 508.5,5.5C 513.167,5.5 517.833,5.5 522.5,5.5C 522.5,27.1667 522.5,48.8333 522.5,70.5C 517.156,70.666 511.823,70.4994 506.5,70C 496.97,56.9827 487.303,44.1494 477.5,31.5C 476.753,28.6385 475.086,26.6385 472.5,25.5C 471.504,40.324 471.171,55.324 471.5,70.5C 467.167,70.5 462.833,70.5 458.5,70.5C 458.5,48.8333 458.5,27.1667 458.5,5.5C 464.167,5.5 469.833,5.5 475.5,5.5 Z"/></g>
<g><path style="opacity:1" fill="#4d413b" d="M 522.5,5.5 C 517.833,5.5 513.167,5.5 508.5,5.5C 508.829,19.6766 508.496,33.6766 507.5,47.5C 507.5,33.1667 507.5,18.8333 507.5,4.5C 512.695,4.17949 517.695,4.51283 522.5,5.5 Z"/></g>
<g><path style="opacity:1" fill="#1c1d24" d="M 635.5,15.5 C 634.512,20.6405 634.179,25.9738 634.5,31.5C 645.167,31.5 655.833,31.5 666.5,31.5C 666.5,34.8333 666.5,38.1667 666.5,41.5C 655.833,41.5 645.167,41.5 634.5,41.5C 634.177,48.0221 634.51,54.3554 635.5,60.5C 647.322,61.4951 659.322,61.8284 671.5,61.5C 671.5,64.5 671.5,67.5 671.5,70.5C 654.5,70.5 637.5,70.5 620.5,70.5C 620.5,48.8333 620.5,27.1667 620.5,5.5C 637.167,5.5 653.833,5.5 670.5,5.5C 670.5,8.5 670.5,11.5 670.5,14.5C 658.655,14.1717 646.988,14.5051 635.5,15.5 Z"/></g>
<g><path style="opacity:1" fill="#483d39" d="M 59.5,4.5 C 60.5,4.83333 61.1667,5.5 61.5,6.5C 60.8333,10.5 60.1667,14.5 59.5,18.5C 59.5,13.8333 59.5,9.16667 59.5,4.5 Z"/></g>
<g><path style="opacity:1" fill="#1c1d24" d="M 61.5,6.5 C 68.5684,16.2345 75.2351,26.2345 81.5,36.5C 75.6743,47.4805 68.8409,57.8138 61,67.5C 60.5017,64.1832 60.335,60.8499 60.5,57.5C 48.6783,56.5049 36.6783,56.1716 24.5,56.5C 24.5,52.8333 24.5,49.1667 24.5,45.5C 35.0135,45.8276 45.3468,45.4942 55.5,44.5C 55.5,39.1667 55.5,33.8333 55.5,28.5C 45.1667,28.5 34.8333,28.5 24.5,28.5C 24.5,25.5 24.5,22.5 24.5,19.5C 36.3453,19.8283 48.012,19.4949 59.5,18.5C 60.1667,14.5 60.8333,10.5 61.5,6.5 Z"/></g>
<g><path style="opacity:1" fill="#686969" d="M 565.5,1.5 C 579.892,-0.752451 592.892,2.41422 604.5,11C 606,13.1667 607.5,15.3333 609,17.5C 609.684,18.7839 609.517,19.9505 608.5,21C 603.712,23.7288 598.712,25.8955 593.5,27.5C 592.5,27.1667 591.5,26.8333 590.5,26.5C 589.363,23.5302 587.363,21.3635 584.5,20C 577.693,17.7899 571.027,18.1232 564.5,21C 561.894,22.9384 560.061,25.4384 559,28.5C 557.685,36.8389 558.685,44.8389 562,52.5C 563.558,54.3589 565.391,55.8589 567.5,57C 572.5,57.6667 577.5,57.6667 582.5,57C 587.379,54.9277 590.379,51.261 591.5,46C 598.299,46.4337 604.632,48.6004 610.5,52.5C 607.8,62.0339 601.8,68.5339 592.5,72C 577.535,76.4721 563.202,75.1387 549.5,68C 534.963,54.6691 531.463,38.8358 539,20.5C 545.184,10.3371 554.018,4.00379 565.5,1.5 Z"/></g>
<g><path style="opacity:1" fill="#1d1e25" d="M 557.5,24.5 C 556.207,25.842 555.374,27.5087 555,29.5C 554.184,34.6842 554.35,39.6842 555.5,44.5C 558.344,57.4322 566.344,62.5988 579.5,60C 581.878,59.4888 584.212,58.8221 586.5,58C 590.078,55.3112 593.078,52.1445 595.5,48.5C 599.289,49.8946 602.956,51.5613 606.5,53.5C 602.421,63.3785 595.088,69.2119 584.5,71C 568.848,74.2167 555.682,70.0501 545,58.5C 538.045,45.3533 537.712,32.0199 544,18.5C 553.704,6.70611 566.204,2.20611 581.5,5C 591.804,5.64609 599.804,10.1461 605.5,18.5C 602.427,21.1237 598.927,23.1237 595,24.5C 591.844,22.0139 588.678,19.5139 585.5,17C 577.999,14.7059 570.666,15.0392 563.5,18C 561.294,20.0367 559.294,22.2034 557.5,24.5 Z"/></g>
<g><path style="opacity:1" fill="#3d3a3c" d="M 20.5,15.5 C 31.988,14.5051 43.6547,14.1717 55.5,14.5C 55.5,11.5 55.5,8.5 55.5,5.5C 38.8333,5.5 22.1667,5.5 5.5,5.5C 5.5,27.1667 5.5,48.8333 5.5,70.5C 22.5,70.5 39.5,70.5 56.5,70.5C 56.8333,70.5 57.1667,70.5 57.5,70.5C 40.0079,71.4967 22.3412,71.8301 4.5,71.5C 4.5,49.1667 4.5,26.8333 4.5,4.5C 21.8333,4.5 39.1667,4.5 56.5,4.5C 56.5,8.16667 56.5,11.8333 56.5,15.5C 44.5,15.5 32.5,15.5 20.5,15.5 Z"/></g>
<g><path style="opacity:1" fill="#383638" d="M 635.5,15.5 C 646.988,14.5051 658.655,14.1717 670.5,14.5C 670.5,11.5 670.5,8.5 670.5,5.5C 653.833,5.5 637.167,5.5 620.5,5.5C 620.5,27.1667 620.5,48.8333 620.5,70.5C 620.167,70.5 619.833,70.5 619.5,70.5C 619.5,48.5 619.5,26.5 619.5,4.5C 636.833,4.5 654.167,4.5 671.5,4.5C 671.5,8.16667 671.5,11.8333 671.5,15.5C 659.5,15.5 647.5,15.5 635.5,15.5 Z"/></g>
<g><path style="opacity:1" fill="#696867" d="M 297.5,15.5 C 304.589,15.1156 311.589,15.6156 318.5,17C 323.446,21.3003 323.779,25.967 319.5,31C 317.975,32.0086 316.308,32.5086 314.5,32.5C 308.833,32.5 303.167,32.5 297.5,32.5C 297.5,26.8333 297.5,21.1667 297.5,15.5 Z"/></g>
<g><path style="opacity:1" fill="#696968" d="M 158.5,15.5 C 165.589,15.1156 172.589,15.6156 179.5,17C 183.837,21.4703 184.67,26.6369 182,32.5C 181.097,33.7014 179.931,34.5348 178.5,35C 171.897,36.2736 165.23,36.7736 158.5,36.5C 158.5,29.5 158.5,22.5 158.5,15.5 Z"/></g>
<g><path style="opacity:1" fill="#2f2e32" d="M 59.5,18.5 C 48.012,19.4949 36.3453,19.8283 24.5,19.5C 24.5,22.5 24.5,25.5 24.5,28.5C 24.1667,28.5 23.8333,28.5 23.5,28.5C 23.5,25.1667 23.5,21.8333 23.5,18.5C 35.5,18.5 47.5,18.5 59.5,18.5 Z"/></g>
<g><path style="opacity:1" fill="#1c1e25" d="M 162.5,18.5 C 167.179,18.3342 171.845,18.5008 176.5,19C 177.931,19.4652 179.097,20.2986 180,21.5C 180.667,24.1667 180.667,26.8333 180,29.5C 178.871,31.1412 177.371,32.1412 175.5,32.5C 171.167,32.5 166.833,32.5 162.5,32.5C 162.5,27.8333 162.5,23.1667 162.5,18.5 Z"/></g>
<g><path style="opacity:1" fill="#1d1e25" d="M 300.5,18.5 C 305.511,18.3341 310.511,18.5007 315.5,19C 317.91,19.7579 318.91,21.4246 318.5,24C 318.775,27.0603 317.442,29.0603 314.5,30C 309.845,30.4992 305.179,30.6658 300.5,30.5C 300.5,26.5 300.5,22.5 300.5,18.5 Z"/></g>
<g><path style="opacity:1" fill="#3a4550" d="M 472.5,25.5 C 472.5,40.8333 472.5,56.1667 472.5,71.5C 467.305,71.8205 462.305,71.4872 457.5,70.5C 457.833,70.5 458.167,70.5 458.5,70.5C 462.833,70.5 467.167,70.5 471.5,70.5C 471.171,55.324 471.504,40.324 472.5,25.5 Z"/></g>
<g><path style="opacity:1" fill="#5d5651" d="M 23.5,28.5 C 23.8333,28.5 24.1667,28.5 24.5,28.5C 34.8333,28.5 45.1667,28.5 55.5,28.5C 55.5,33.8333 55.5,39.1667 55.5,44.5C 55.1667,44.5 54.8333,44.5 54.5,44.5C 54.5,39.5 54.5,34.5 54.5,29.5C 43.9865,29.8276 33.6532,29.4942 23.5,28.5 Z"/></g>
<g><path style="opacity:1" fill="#646667" d="M 230.5,15.5 C 230.5,20.5 230.5,25.5 230.5,30.5C 241.014,30.1724 251.347,30.5058 261.5,31.5C 250.833,31.5 240.167,31.5 229.5,31.5C 229.179,25.9738 229.512,20.6405 230.5,15.5 Z"/></g>
<g><path style="opacity:1" fill="#646667" d="M 406.5,15.5 C 406.5,20.5 406.5,25.5 406.5,30.5C 417.014,30.1724 427.347,30.5058 437.5,31.5C 426.833,31.5 416.167,31.5 405.5,31.5C 405.179,25.9738 405.512,20.6405 406.5,15.5 Z"/></g>
<g><path style="opacity:1" fill="#44505b" d="M 198.5,22.5 C 199.641,25.6399 199.808,28.9733 199,32.5C 198.617,33.056 198.117,33.3893 197.5,33.5C 198.344,29.9009 198.677,26.2343 198.5,22.5 Z"/></g>
<g><path style="opacity:1" fill="#292c33" d="M 229.5,31.5 C 240.167,31.5 250.833,31.5 261.5,31.5C 261.813,35.0419 261.479,38.3752 260.5,41.5C 260.5,38.5 260.5,35.5 260.5,32.5C 249.986,32.8276 239.653,32.4942 229.5,31.5 Z"/></g>
<g><path style="opacity:1" fill="#292c33" d="M 405.5,31.5 C 416.167,31.5 426.833,31.5 437.5,31.5C 437.813,35.0419 437.479,38.3752 436.5,41.5C 436.5,38.5 436.5,35.5 436.5,32.5C 425.986,32.8276 415.653,32.4942 405.5,31.5 Z"/></g>
<g><path style="opacity:1" fill="#312e31" d="M 162.5,18.5 C 162.5,23.1667 162.5,27.8333 162.5,32.5C 166.833,32.5 171.167,32.5 175.5,32.5C 171.03,33.4861 166.363,33.8195 161.5,33.5C 161.179,28.3054 161.513,23.3054 162.5,18.5 Z"/></g>
<g><path style="opacity:1" fill="#505459" d="M 297.5,15.5 C 297.5,21.1667 297.5,26.8333 297.5,32.5C 303.167,32.5 308.833,32.5 314.5,32.5C 308.69,33.4896 302.69,33.8229 296.5,33.5C 296.177,27.31 296.51,21.31 297.5,15.5 Z"/></g>
<g><path style="opacity:1" fill="#46535d" d="M 557.5,24.5 C 555.795,31.0144 555.129,37.6811 555.5,44.5C 554.35,39.6842 554.184,34.6842 555,29.5C 555.374,27.5087 556.207,25.842 557.5,24.5 Z"/></g>
<g><path style="opacity:1" fill="#454f58" d="M 666.5,41.5 C 656.347,42.4942 646.014,42.8276 635.5,42.5C 635.5,48.5 635.5,54.5 635.5,60.5C 634.51,54.3554 634.177,48.0221 634.5,41.5C 645.167,41.5 655.833,41.5 666.5,41.5 Z"/></g>
<g><path style="opacity:1" fill="#6a6968" d="M 321.5,5.5 C 323.5,5.5 325.5,5.5 327.5,5.5C 340.671,11.175 343.838,20.5083 337,33.5C 334.591,35.6201 332.091,37.6201 329.5,39.5C 336.102,49.3726 341.102,60.0393 344.5,71.5C 337.576,73.4633 330.243,74.1299 322.5,73.5C 321.545,71.2543 320.878,68.921 320.5,66.5C 321.434,65.4324 321.768,64.099 321.5,62.5C 323.267,64.7916 324.267,67.4582 324.5,70.5C 329.64,71.4881 334.974,71.8214 340.5,71.5C 340.737,70.209 340.404,69.209 339.5,68.5C 336.476,61.2854 333.643,53.9521 331,46.5C 328.718,43.4317 325.884,40.9317 322.5,39C 326.897,37.3834 330.731,34.8834 334,31.5C 340.264,17.6962 336.097,9.02951 321.5,5.5 Z"/></g>
<g><path style="opacity:1" fill="#3e3b3d" d="M 264.5,44.5 C 254.347,45.4942 244.014,45.8276 233.5,45.5C 233.5,49.5 233.5,53.5 233.5,57.5C 232.515,53.3656 232.182,49.0323 232.5,44.5C 243.167,44.5 253.833,44.5 264.5,44.5 Z"/></g>
<g><path style="opacity:1" fill="#3e3b3d" d="M 440.5,44.5 C 430.347,45.4942 420.014,45.8276 409.5,45.5C 409.5,49.5 409.5,53.5 409.5,57.5C 408.515,53.3656 408.182,49.0323 408.5,44.5C 419.167,44.5 429.833,44.5 440.5,44.5 Z"/></g>
<g><path style="opacity:1" fill="#2f2f34" d="M 54.5,44.5 C 54.8333,44.5 55.1667,44.5 55.5,44.5C 45.3468,45.4942 35.0135,45.8276 24.5,45.5C 24.5,49.1667 24.5,52.8333 24.5,56.5C 36.6783,56.1716 48.6783,56.5049 60.5,57.5C 48.1667,57.5 35.8333,57.5 23.5,57.5C 23.5,53.1667 23.5,48.8333 23.5,44.5C 33.8333,44.5 44.1667,44.5 54.5,44.5 Z"/></g>
<g><path style="opacity:1" fill="#605750" d="M 318.5,54.5 C 320.065,56.5093 321.065,58.8427 321.5,61.5C 319.166,59.8243 318.166,57.491 318.5,54.5 Z"/></g>
<g><path style="opacity:1" fill="#2f3237" d="M 20.5,60.5 C 32.8333,60.5 45.1667,60.5 57.5,60.5C 57.5,63.8333 57.5,67.1667 57.5,70.5C 57.1667,70.5 56.8333,70.5 56.5,70.5C 56.5,67.5 56.5,64.5 56.5,61.5C 44.3217,61.8284 32.3217,61.4951 20.5,60.5 Z"/></g>
<g><path style="opacity:1" fill="#474647" d="M 64.5,69.5 C 68.97,70.4861 73.6367,70.8195 78.5,70.5C 73.6946,71.4872 68.6946,71.8205 63.5,71.5C 63.3284,70.5084 63.6618,69.8417 64.5,69.5 Z"/></g>
<g><path style="opacity:1" fill="#464648" d="M 129.5,69.5 C 130.043,69.56 130.376,69.8933 130.5,70.5C 125.014,71.8147 119.68,71.8147 114.5,70.5C 119.695,70.8205 124.695,70.4872 129.5,69.5 Z"/></g>
<g><path style="opacity:1" fill="#3f434b" d="M 158.5,46.5 C 158.5,54.8333 158.5,63.1667 158.5,71.5C 152.974,71.8214 147.64,71.4881 142.5,70.5C 142.833,70.5 143.167,70.5 143.5,70.5C 148.167,70.5 152.833,70.5 157.5,70.5C 157.174,62.3159 157.508,54.3159 158.5,46.5 Z"/></g>
<g><path style="opacity:1" fill="#4b4f54" d="M 297.5,43.5 C 297.5,52.8333 297.5,62.1667 297.5,71.5C 291.974,71.8214 286.64,71.4881 281.5,70.5C 281.833,70.5 282.167,70.5 282.5,70.5C 287.167,70.5 291.833,70.5 296.5,70.5C 296.173,61.3178 296.507,52.3178 297.5,43.5 Z"/></g>
<g><path style="opacity:1" fill="#46474a" d="M 339.5,68.5 C 340.404,69.209 340.737,70.209 340.5,71.5C 334.974,71.8214 329.64,71.4881 324.5,70.5C 329.944,71.1083 334.944,70.4417 339.5,68.5 Z"/></g>
<g><path style="opacity:1" fill="#3e4044" d="M 635.5,60.5 C 647.833,60.5 660.167,60.5 672.5,60.5C 672.5,64.1667 672.5,67.8333 672.5,71.5C 654.659,71.8301 636.992,71.4967 619.5,70.5C 619.833,70.5 620.167,70.5 620.5,70.5C 637.5,70.5 654.5,70.5 671.5,70.5C 671.5,67.5 671.5,64.5 671.5,61.5C 659.322,61.8284 647.322,61.4951 635.5,60.5 Z"/></g>
<g><path style="opacity:1" fill="#3f4043" d="M 135.5,72.5 C 136.043,72.56 136.376,72.8933 136.5,73.5C 128.677,74.8199 121.01,74.8199 113.5,73.5C 121.019,73.825 128.352,73.4916 135.5,72.5 Z"/></g>
<g><path style="opacity:1" fill="#3e3e41" d="M 344.5,71.5 C 345.404,72.209 345.737,73.209 345.5,74.5C 337.648,74.8254 329.982,74.492 322.5,73.5C 330.243,74.1299 337.576,73.4633 344.5,71.5 Z"/></g>
<g><path style="opacity:1" fill="#41464e" d="M 387.5,2.5 C 387.5,26.1667 387.5,49.8333 387.5,73.5C 406.833,73.5 426.167,73.5 445.5,73.5C 426.007,74.4971 406.34,74.8304 386.5,74.5C 386.169,50.3275 386.502,26.3275 387.5,2.5 Z"/></g>
</svg>
